<svg width="37" height="37" viewBox="0 0 37 37" fill="none" xmlns="http://www.w3.org/2000/svg">
<path fill-rule="evenodd" clip-rule="evenodd" d="M18.4463 0C8.25782 0 0 8.25935 0 18.4463C0 28.6333 8.25782 36.8927 18.4463 36.8927C28.6333 36.8927 36.8927 28.6333 36.8927 18.4463C36.8927 8.25935 28.6333 0 18.4463 0ZM18.6616 29.2344C12.7157 29.2344 7.90119 24.4076 7.90119 18.4463C7.90119 12.4851 12.7157 7.65831 18.6616 7.65831C21.5669 7.65831 23.9956 8.72973 25.8587 10.4698L22.8243 13.5104V13.5043C21.6944 12.4252 20.2618 11.8718 18.6616 11.8718C15.1106 11.8718 12.2253 14.8785 12.2253 18.4402C12.2253 21.9988 15.1106 25.0148 18.6616 25.0148C21.8835 25.0148 24.0756 23.1671 24.5275 20.6307H18.6616V16.4234H28.784C28.9193 17.1459 28.9915 17.8991 28.9915 18.6892C28.9915 24.8534 24.8764 29.2344 18.6616 29.2344Z" fill="#DCDCDC"/>
</svg>
