<svg width="29" height="29" viewBox="0 0 29 29" fill="none" xmlns="http://www.w3.org/2000/svg">
<path d="M14.0382 0.438232C13.5143 0.438232 12.9955 0.558673 12.5114 0.792678C12.0274 1.02668 11.5876 1.36967 11.2171 1.80205C10.8466 2.23444 10.5528 2.74775 10.3523 3.31269C10.1518 3.87762 10.0486 4.48312 10.0486 5.0946C10.0486 5.70609 10.1518 6.31158 10.3523 6.87652C10.5528 7.44146 10.8466 7.95477 11.2171 8.38716C11.5876 8.81954 12.0274 9.16253 12.5114 9.39653C12.9955 9.63054 13.5143 9.75098 14.0382 9.75098C15.0963 9.75098 16.1111 9.2604 16.8592 8.38716C17.6074 7.51392 18.0278 6.32955 18.0278 5.0946C18.0278 3.85966 17.6074 2.67529 16.8592 1.80205C16.1111 0.928813 15.0963 0.438232 14.0382 0.438232Z" fill="#90A4B3"/>
<path d="M23.0238 2.76416C22.2294 2.76416 21.4676 3.13246 20.9059 3.78805C20.3442 4.44363 20.0286 5.3328 20.0286 6.25994C20.0286 7.18707 20.3442 8.07624 20.9059 8.73182C21.4676 9.38741 22.2294 9.75571 23.0238 9.75571C23.8182 9.75571 24.58 9.38741 25.1417 8.73182C25.7034 8.07624 26.019 7.18707 26.019 6.25994C26.019 5.3328 25.7034 4.44363 25.1417 3.78805C24.58 3.13246 23.8182 2.76416 23.0238 2.76416Z" fill="#90A4B3"/>
<path d="M5.05256 2.76416C4.25819 2.76416 3.49635 3.13246 2.93464 3.78805C2.37294 4.44363 2.05737 5.3328 2.05737 6.25994C2.05737 7.18707 2.37294 8.07624 2.93464 8.73182C3.49635 9.38741 4.25819 9.75571 5.05256 9.75571C5.84694 9.75571 6.60878 9.38741 7.17048 8.73182C7.73219 8.07624 8.04775 7.18707 8.04775 6.25994C8.04775 5.3328 7.73219 4.44363 7.17048 3.78805C6.60878 3.13246 5.84694 2.76416 5.05256 2.76416Z" fill="#90A4B3"/>
<path d="M8.04785 14.4001C8.05154 13.7849 8.26355 13.1963 8.63762 12.7628C9.01169 12.3292 9.51748 12.0859 10.0446 12.0859H18.0318C18.5614 12.0859 19.0693 12.3315 19.4438 12.7685C19.8182 13.2056 20.0286 13.7984 20.0286 14.4165V21.408C20.0285 22.1415 19.9301 22.8704 19.7371 23.5684C19.2949 25.1501 18.3841 26.4961 17.1682 27.3646C15.9523 28.2331 14.511 28.5672 13.103 28.307C11.695 28.0467 10.4126 27.2092 9.48611 25.9448C8.55959 24.6803 8.04965 23.0718 8.04785 21.408V14.4165V14.4001Z" fill="#90A4B3"/>
<path d="M6.05105 14.4165C6.05105 13.5658 6.24474 12.7711 6.58619 12.0859H2.05746C1.52788 12.0859 1.01999 12.3315 0.645516 12.7685C0.271045 13.2056 0.0606692 13.7984 0.0606692 14.4165V20.2427C0.0603973 21.1966 0.2608 22.136 0.644277 22.9784C1.02776 23.8208 1.58258 24.5404 2.26002 25.074C2.93746 25.6076 3.71681 25.939 4.52961 26.0389C5.3424 26.1389 6.1638 26.0044 6.92165 25.6472C6.34693 24.3341 6.04849 22.8802 6.05105 21.4057V14.4165Z" fill="#90A4B3"/>
<path d="M22.0254 14.4165V21.408C22.0254 22.9345 21.7119 24.3748 21.1548 25.6472C21.9126 26.0044 22.734 26.1389 23.5468 26.0389C24.3596 25.939 25.139 25.6076 25.8164 25.074C26.4939 24.5404 27.0487 23.8208 27.4322 22.9784C27.8156 22.136 28.016 21.1966 28.0158 20.2427V14.4165C28.0158 13.7984 27.8054 13.2056 27.4309 12.7685C27.0564 12.3315 26.5486 12.0859 26.019 12.0859H21.4902C21.8297 12.7711 22.0254 13.5658 22.0254 14.4165Z" fill="#90A4B3"/>
</svg>
