<svg width="22" height="17" viewBox="0 0 22 17" fill="none" xmlns="http://www.w3.org/2000/svg">
<path d="M0 2.68888C0 1.97574 0.283292 1.29182 0.787555 0.787555C1.29182 0.283292 1.97574 0 2.68888 0H18.8222C19.5353 0 20.2192 0.283292 20.7235 0.787555C21.2277 1.29182 21.511 1.97574 21.511 2.68888V13.4444C21.511 14.1575 21.2277 14.8415 20.7235 15.3457C20.2192 15.85 19.5353 16.1333 18.8222 16.1333H2.68888C1.97574 16.1333 1.29182 15.85 0.787555 15.3457C0.283292 14.8415 0 14.1575 0 13.4444V2.68888ZM2.68888 1.34444C2.33231 1.34444 1.99035 1.48609 1.73822 1.73822C1.48609 1.99035 1.34444 2.33231 1.34444 2.68888V4.03332H20.1666V2.68888C20.1666 2.33231 20.025 1.99035 19.7728 1.73822C19.5207 1.48609 19.1787 1.34444 18.8222 1.34444H2.68888ZM20.1666 6.7222H1.34444V13.4444C1.34444 13.801 1.48609 14.1429 1.73822 14.3951C1.99035 14.6472 2.33231 14.7888 2.68888 14.7888H18.8222C19.1787 14.7888 19.5207 14.6472 19.7728 14.3951C20.025 14.1429 20.1666 13.801 20.1666 13.4444V6.7222Z" fill="#FCFCFC"/>
<path d="M2.68945 10.7556C2.68945 10.399 2.8311 10.057 3.08323 9.80491C3.33536 9.55278 3.67733 9.41113 4.03389 9.41113H5.37833C5.7349 9.41113 6.07686 9.55278 6.329 9.80491C6.58113 10.057 6.72277 10.399 6.72277 10.7556V12.1C6.72277 12.4566 6.58113 12.7985 6.329 13.0507C6.07686 13.3028 5.7349 13.4445 5.37833 13.4445H4.03389C3.67733 13.4445 3.33536 13.3028 3.08323 13.0507C2.8311 12.7985 2.68945 12.4566 2.68945 12.1V10.7556Z" fill="#FCFCFC"/>
</svg>
