<svg width="41" height="41" viewBox="0 0 41 41" fill="none" xmlns="http://www.w3.org/2000/svg">
<path d="M20.5 0C9.17924 0 0 9.17924 0 20.5C0 31.8208 9.17924 41 20.5 41C31.8208 41 41 31.8208 41 20.5C41 9.17924 31.8208 0 20.5 0ZM20.5 37.5223C11.1011 37.5223 3.47768 29.8989 3.47768 20.5C3.47768 11.1011 11.1011 3.47768 20.5 3.47768C29.8989 3.47768 37.5223 11.1011 37.5223 20.5C37.5223 29.8989 29.8989 37.5223 20.5 37.5223Z" fill="#F8F8F8"/>
<path d="M25.6228 10.9804C24.2463 9.77262 22.4292 9.11133 20.5019 9.11133C18.5747 9.11133 16.7576 9.77721 15.381 10.9804C13.9494 12.2341 13.1602 13.9195 13.1602 15.7242V16.0732C13.1602 16.2753 13.3253 16.4406 13.5272 16.4406H15.7298C15.9317 16.4406 16.0969 16.2753 16.0969 16.0732V15.7242C16.0969 13.699 18.0746 12.0504 20.5019 12.0504C22.9293 12.0504 24.907 13.699 24.907 15.7242C24.907 17.1524 23.8975 18.4612 22.3328 19.0628C21.36 19.4348 20.5341 20.0869 19.9421 20.9411C19.341 21.8136 19.029 22.8607 19.029 23.9215V24.9088C19.029 25.1109 19.1942 25.2762 19.3961 25.2762H21.5986C21.8005 25.2762 21.9657 25.1109 21.9657 24.9088V23.8664C21.9681 23.4206 22.1046 22.9858 22.3576 22.6188C22.6105 22.2518 22.968 21.9696 23.3836 21.809C26.0909 20.7666 27.8391 18.3786 27.8391 15.7242C27.8437 13.9195 27.0545 12.2341 25.6228 10.9804ZM18.6665 30.0522C18.6665 30.5394 18.8599 31.0066 19.2041 31.3511C19.5483 31.6956 20.0152 31.8891 20.5019 31.8891C20.9887 31.8891 21.4556 31.6956 21.7998 31.3511C22.144 31.0066 22.3374 30.5394 22.3374 30.0522C22.3374 29.565 22.144 29.0978 21.7998 28.7533C21.4556 28.4088 20.9887 28.2153 20.5019 28.2153C20.0152 28.2153 19.5483 28.4088 19.2041 28.7533C18.8599 29.0978 18.6665 29.565 18.6665 30.0522Z" fill="#F8F8F8"/>
</svg>
