<svg width="19" height="19" viewBox="0 0 19 19" fill="none" xmlns="http://www.w3.org/2000/svg">
<path d="M18.606 9.34747L10.5081 0.777805L9.96529 0.203092C9.84162 0.0730081 9.67437 0 9.50004 0C9.32571 0 9.15846 0.0730081 9.03479 0.203092L0.394084 9.34747C0.267358 9.48113 0.167204 9.64031 0.0995338 9.81562C0.0318639 9.99094 -0.00195035 10.1788 8.68674e-05 10.3682C0.00846979 11.1493 0.622519 11.7728 1.36022 11.7728H2.2509V19H16.7492V11.7728H17.6587C18.0171 11.7728 18.3545 11.6241 18.6081 11.3556C18.733 11.2239 18.8319 11.0672 18.8992 10.8946C18.9664 10.7221 19.0007 10.5371 19 10.3504C19 9.97322 18.8596 9.61597 18.606 9.34747ZM10.6736 17.4023H8.32643V12.8756H10.6736V17.4023ZM15.2402 10.1751V17.4023H12.0149V12.3431C12.0149 11.8527 11.6398 11.4555 11.1766 11.4555H7.82345C7.3603 11.4555 6.98516 11.8527 6.98516 12.3431V17.4023H3.75983V10.1751H1.74793L9.50213 1.97161L9.98625 2.48419L17.2542 10.1751H15.2402Z" fill="#FCFCFC"/>
</svg>
