<svg width="22" height="19" viewBox="0 0 22 19" fill="none" xmlns="http://www.w3.org/2000/svg">
    <path d="M6.20508 6.94729L10.6655 1L15.126 6.94729" stroke="#FCFCFC" stroke-width="2" stroke-linejoin="round"/>
    <path
        d="M1.94791 6.94727C1.69805 6.94701 1.45822 7.04552 1.28067 7.22132C1.10313 7.39713 1.00226 7.63598 1.00006 7.88582C0.999044 7.97242 1.01159 8.05865 1.03723 8.14137L3.43938 16.6116C3.55071 17.0073 3.78865 17.3555 4.11676 17.6031C4.44487 17.8506 4.84507 17.9838 5.25609 17.9823H16.0727C16.4845 17.9826 16.8853 17.8492 17.2147 17.6019C17.544 17.3547 17.7841 17.0072 17.8987 16.6116L20.3009 8.14137L20.3288 7.88582C20.3266 7.63598 20.2257 7.39713 20.0481 7.22132C19.8706 7.04552 19.6308 6.94701 19.3809 6.94727H1.94791ZM10.9302 14.3846C10.544 14.3827 10.167 14.2664 9.84687 14.0505C9.52671 13.8345 9.27769 13.5286 9.13123 13.1712C8.98478 12.8139 8.94746 12.4212 9.02398 12.0426C9.1005 11.6641 9.28744 11.3167 9.56119 11.0443C9.83495 10.7719 10.1833 10.5867 10.5622 10.5121C10.9411 10.4375 11.3336 10.4767 11.6902 10.625C12.0468 10.7732 12.3515 11.0237 12.5659 11.345C12.7802 11.6662 12.8946 12.0437 12.8946 12.4299C12.8922 12.9493 12.6841 13.4465 12.316 13.8128C11.9478 14.1792 11.4495 14.3848 10.9302 14.3846V14.3846Z"
        stroke="#FCFCFC" stroke-width="2" stroke-linejoin="round"/>
</svg>
