<svg width="28" height="29" viewBox="0 0 28 29" fill="none" xmlns="http://www.w3.org/2000/svg">
<path d="M14 0.671631C6.2804 0.671631 0 6.95203 0 14.6716C0 22.3912 6.2804 28.6716 14 28.6716C21.7196 28.6716 28 22.3912 28 14.6716C28 6.95203 21.7196 0.671631 14 0.671631ZM15.4 23.0716H12.6V20.2716H15.4V23.0716ZM16.7664 16.2326C16.492 16.4538 16.2274 16.6652 16.0174 16.8752C15.4462 17.445 15.4014 17.963 15.4 17.9854V18.1716H12.6V17.9378C12.6 17.7726 12.6406 16.29 14.0364 14.8942C14.3094 14.6212 14.6482 14.344 15.0038 14.0556C16.0314 13.2226 16.7062 12.615 16.7062 11.7778C16.6899 11.0706 16.3975 10.3978 15.8915 9.9034C15.3855 9.40901 14.7061 9.13231 13.9986 9.13249C13.2912 9.13267 12.6119 9.40973 12.1061 9.90438C11.6004 10.399 11.3083 11.072 11.2924 11.7792H8.4924C8.4924 8.74263 10.9634 6.27163 14 6.27163C17.0366 6.27163 19.5076 8.74263 19.5076 11.7792C19.5076 14.015 17.857 15.3492 16.7664 16.2326Z" fill="#90A4B3"/>
</svg>
