<svg width="50" height="40" viewBox="0 0 50 40" fill="none" xmlns="http://www.w3.org/2000/svg">
<path d="M22.4658 4.62695C20.1709 5.94531 18.3154 7.09277 16.8994 8.06934C15.4834 8.99707 14.043 10.2422 12.5781 11.8047C11.2109 13.2695 10.1611 14.8076 9.42871 16.4189C8.69629 18.0303 8.18359 20.1055 7.89062 22.6445H11.4062C14.4336 22.6445 16.8018 23.4014 18.5107 24.915C20.2686 26.3799 21.1475 28.5527 21.1475 31.4336C21.1475 33.4844 20.3662 35.4131 18.8037 37.2197C17.29 38.9775 15.1904 39.8564 12.5049 39.8564C8.30566 39.8564 5.30273 38.4893 3.49609 35.7549C1.68945 32.9717 0.786133 29.334 0.786133 24.8418C0.786133 21.668 1.46973 18.7871 2.83691 16.1992C4.2041 13.5625 5.86426 11.2188 7.81738 9.16797C9.81934 7.06836 11.9434 5.28613 14.1895 3.82129C16.4355 2.35645 18.3154 1.16016 19.8291 0.232422L22.4658 4.62695ZM49.5654 4.62695C47.2705 5.94531 45.415 7.09277 43.999 8.06934C42.583 8.99707 41.1426 10.2422 39.6777 11.8047C38.2617 13.3184 37.1875 14.8809 36.4551 16.4922C35.7715 18.0547 35.2832 20.1055 34.9902 22.6445H38.5059C41.5332 22.6445 43.9014 23.4014 45.6104 24.915C47.3682 26.3799 48.2471 28.5527 48.2471 31.4336C48.2471 33.4844 47.4658 35.4131 45.9033 37.2197C44.3896 38.9775 42.29 39.8564 39.6045 39.8564C35.4053 39.8564 32.4023 38.4893 30.5957 35.7549C28.7891 32.9717 27.8857 29.334 27.8857 24.8418C27.8857 21.668 28.5693 18.7871 29.9365 16.1992C31.3037 13.5625 32.9639 11.2188 34.917 9.16797C36.9189 7.06836 39.043 5.28613 41.2891 3.82129C43.5352 2.35645 45.415 1.16016 46.9287 0.232422L49.5654 4.62695Z" fill="#BBB1DB" fill-opacity="0.18"/>
</svg>
