<svg width="102" height="102" viewBox="0 0 102 102" fill="none" xmlns="http://www.w3.org/2000/svg">
<circle cx="51" cy="51" r="50.5" fill="white" stroke="#D1CFCF"/>
<circle cx="51" cy="51" r="43.0695" stroke="#797979"/>
<mask id="path-3-inside-1" fill="white">
<path d="M102 51C102 61.2859 98.8898 71.3313 93.0778 79.8177C87.2657 88.3041 79.0234 94.8348 69.4329 98.5524C59.8424 102.27 49.3518 103.001 39.3385 100.649C29.3251 98.2969 20.2569 92.9722 13.3244 85.3736C6.39176 77.7751 1.91879 68.2579 0.492613 58.0713C-0.93356 47.8848 0.753728 37.5051 5.33298 28.2949C9.91223 19.0846 17.1694 11.4742 26.1518 6.46272C35.1343 1.45126 45.4221 -0.727036 55.6649 0.213792L51 51H102Z"/>
</mask>
<path d="M102 51C102 61.2859 98.8898 71.3313 93.0778 79.8177C87.2657 88.3041 79.0234 94.8348 69.4329 98.5524C59.8424 102.27 49.3518 103.001 39.3385 100.649C29.3251 98.2969 20.2569 92.9722 13.3244 85.3736C6.39176 77.7751 1.91879 68.2579 0.492613 58.0713C-0.93356 47.8848 0.753728 37.5051 5.33298 28.2949C9.91223 19.0846 17.1694 11.4742 26.1518 6.46272C35.1343 1.45126 45.4221 -0.727036 55.6649 0.213792L51 51H102Z" fill="#51616C" stroke="#BCBCBC" stroke-width="2" mask="url(#path-3-inside-1)"/>
<circle cx="51" cy="51" r="43.0695" fill="white" stroke="#797979"/>
</svg>
