<svg width="65" height="65" viewBox="0 0 65 65" fill="none" xmlns="http://www.w3.org/2000/svg">
    <path
        d="M24.5 23.2895C24.5 27.8597 28.3137 31.5789 33 31.5789C37.6863 31.5789 41.5 27.8597 41.5 23.2895C41.5 18.7192 37.6863 15 33 15C28.3137 15 24.5 18.7192 24.5 23.2895ZM48.1111 50H50V48.1579C50 41.0492 44.067 35.2632 36.7778 35.2632H29.2222C21.9311 35.2632 16 41.0492 16 48.1579V50H48.1111Z"
        fill="#B5B5B5"/>
    <path
        d="M32.5 64C49.897 64 64 49.897 64 32.5C64 15.103 49.897 1 32.5 1C15.103 1 1 15.103 1 32.5C1 49.897 15.103 64 32.5 64Z"
        stroke="#B5B5B5" stroke-width="2"/>
</svg>
