<svg width="30" height="23" viewBox="0 0 30 23" fill="none" xmlns="http://www.w3.org/2000/svg">
<path d="M4.30957 18.8929C4.30957 19.3446 4.71512 19.7143 5.21582 19.7143H27.8721C28.8746 19.7143 29.6846 20.4484 29.6846 21.3571C29.6846 22.2658 28.8746 23 27.8721 23H5.21582C2.71344 23 0.68457 21.1621 0.68457 18.8929V1.64286C0.68457 0.735692 1.49623 0 2.49707 0C3.49791 0 4.30957 0.735692 4.30957 1.64286V18.8929ZM20.0896 12.6603C19.3816 13.302 18.2375 13.302 17.5295 12.6603L14.2783 9.71853L9.21465 14.3031C8.50664 14.9449 7.3625 14.9449 6.65449 14.3031C5.94535 13.6614 5.94535 12.6243 6.65449 11.9826L12.9982 6.23259C13.7062 5.59085 14.8504 5.59085 15.5584 6.23259L18.8096 9.17433L24.7795 3.7683C25.4875 3.12554 26.6316 3.12554 27.3396 3.7683C28.0477 4.41005 28.0477 5.4471 27.3396 6.08884L20.0896 12.6603Z" fill="#45DFEB"/>
</svg>
