<svg width="34" height="28" viewBox="0 0 34 28" fill="none" xmlns="http://www.w3.org/2000/svg">
<path d="M8.93457 25.9438V11.9438C8.93457 10.8394 8.01096 10 6.87207 10H2.74707C1.60818 10 0.68457 10.8956 0.68457 11.9438V25.8875C0.68457 26.9919 1.60818 27.8312 2.74707 27.8312H6.87207C8.01289 27.9437 8.93457 27.1 8.93457 25.9438ZM33.6846 12.0063C33.6846 10.35 32.3001 9.0075 30.5908 9.0075H21.1484C22.616 6.63812 23.3734 3.9525 23.3734 3.00625C23.3721 1.5325 22.1797 0 20.1816 0C16.1127 0 18.4827 4.75938 13.2078 8.85L12.1572 9.6625C11.3967 10.2563 11.01 11.125 11.0035 12C11.002 12.0015 11.0035 12 11.0035 12L10.9971 22C10.9971 22.9438 11.4555 23.8331 12.2346 24.3994L14.435 25.9988C16.2178 27.3 18.3898 28 20.6199 28H24.4033C26.1126 28 27.4971 26.6581 27.4971 25.0012C27.4971 24.7741 27.4661 24.5548 27.4168 24.3419C28.6572 23.95 29.5596 22.8375 29.5596 21.5C29.5596 20.9282 29.3857 20.3994 29.0994 19.945C30.5328 19.6875 31.6221 18.4688 31.6221 17.0063C31.6221 16.225 31.3067 15.52 30.8022 14.9862C32.4084 14.8813 33.6846 13.5938 33.6846 12.0063Z" fill="#45DFEB"/>
</svg>
