<svg width="32" height="29" viewBox="0 0 32 29" fill="none" xmlns="http://www.w3.org/2000/svg">
<path d="M30.8272 15.3553L25.2521 12.8059C25.0523 12.7136 24.6408 12.5932 24.1743 12.8059L18.5968 15.3553C18.0736 15.5875 17.7346 16.1482 17.7346 16.7146C17.7346 23.0357 21.0646 27.4084 24.1719 28.8301C24.6381 29.0425 25.0438 28.9221 25.2496 28.8301C27.7321 27.7482 31.6846 23.8174 31.6846 16.7146C31.6846 16.1482 31.3455 15.5875 30.8272 15.3553ZM24.7096 26.1906V15.4742L29.3354 17.5914C29.0641 22.5316 26.3855 25.2617 24.7096 26.1906ZM11.5346 14.5C14.9591 14.5 17.7346 11.2539 17.7346 7.25C17.7346 3.24607 14.9591 0 11.5346 0C8.11004 0 5.33457 3.24607 5.33457 7.25C5.33457 11.2539 8.11004 14.5 11.5346 14.5ZM16.2136 17.5756C15.5016 17.349 14.7605 17.2188 13.9904 17.2188H9.07879C4.4438 17.2188 0.68457 21.6197 0.68457 27.0402C0.68457 28.1221 1.43632 29 2.36341 29H20.7038C20.856 29 20.9928 28.9431 21.133 28.8987C18.5919 26.6098 16.3832 22.6732 16.2136 17.5756Z" fill="#45DFEB"/>
</svg>
