<svg width="29" height="26" viewBox="0 0 29 26" fill="none" xmlns="http://www.w3.org/2000/svg">
<path d="M0.68457 13C0.68457 5.81953 6.95176 0 14.6846 0C22.4174 0 28.6846 5.81953 28.6846 13C28.6846 20.1805 22.4174 26 14.6846 26C6.95176 26 0.68457 20.1805 0.68457 13ZM9.65879 16.5293C9.3416 16.1891 8.78926 16.1535 8.42285 16.448C8.05645 16.7426 8.01816 17.2555 8.33535 17.5957C9.54941 18.8957 11.6713 20.3125 14.6354 20.3125C17.6979 20.3125 19.8143 18.8957 21.0338 17.5957C21.351 17.2555 21.3127 16.7426 20.9463 16.448C20.5799 16.1535 20.0275 16.1891 19.7104 16.5293C18.726 17.5805 17.058 18.6875 14.6354 18.6875C12.3111 18.6875 10.6377 17.5805 9.65879 16.5293ZM13.0713 11.7609C13.2518 11.7051 13.3721 11.5477 13.3721 11.375C13.3721 10.466 13.0057 9.56719 12.4643 8.89687C11.9283 8.23672 11.1572 7.71875 10.3096 7.71875C9.46191 7.71875 8.69082 8.23672 8.15488 8.89687C7.61348 9.56719 7.24707 10.466 7.24707 11.375C7.24707 11.5477 7.36738 11.7051 7.54785 11.7609C7.72285 11.8168 7.91973 11.7609 8.03457 11.6188L8.04551 11.6035C8.05645 11.5934 8.01816 11.5781 8.08379 11.5578C8.07285 11.5172 8.17129 11.4613 8.23691 11.3902C8.37363 11.243 8.56504 11.0551 8.79473 10.8215C9.27598 10.4711 9.82832 10.1562 10.3096 10.1562C10.7908 10.1562 11.3432 10.4711 11.8244 10.8215C12.0541 11.0551 12.2455 11.243 12.3822 11.3902C12.4479 11.4613 12.4971 11.5172 12.5354 11.5578C12.5518 11.5781 12.5627 11.5934 12.5736 11.6035L12.5846 11.6188C12.6994 11.7609 12.8963 11.8168 13.0713 11.7609ZM21.3346 11.6188C21.4494 11.7609 21.6463 11.8168 21.8213 11.7609C22.0018 11.7051 22.1221 11.5477 22.1221 11.375C22.1221 10.466 21.7557 9.56719 21.2143 8.89687C20.6783 8.23672 19.9072 7.71875 19.0596 7.71875C18.2119 7.71875 17.4408 8.23672 16.9049 8.89687C16.3635 9.56719 15.9971 10.466 15.9971 11.375C15.9971 11.5477 16.1174 11.7051 16.2979 11.7609C16.4729 11.8168 16.6697 11.7609 16.7846 11.6188L16.7955 11.6035C16.8064 11.5934 16.7682 11.5781 16.8338 11.5578C16.8229 11.5172 16.9213 11.4613 16.9869 11.3902C17.1236 11.243 17.315 11.0551 17.5447 10.8215C18.026 10.4711 18.5783 10.1562 19.0596 10.1562C19.5408 10.1562 20.0932 10.4711 20.5744 10.8215C20.8041 11.0551 20.9955 11.243 21.1322 11.3902C21.1979 11.4613 21.2471 11.5172 21.2854 11.5578C21.3018 11.5781 21.3127 11.5934 21.3236 11.6035L21.3346 11.6188Z" fill="#45DFEB"/>
</svg>
