<svg width="51" height="51" viewBox="0 0 51 51" fill="none" xmlns="http://www.w3.org/2000/svg">
<path d="M25.5012 15.9375C20.2316 15.9375 15.9383 20.2307 15.9383 25.5C15.9383 30.7693 20.2316 35.0625 25.5012 35.0625C30.7708 35.0625 35.0642 30.7693 35.0642 25.5C35.0642 20.2307 30.7708 15.9375 25.5012 15.9375ZM50.0462 23.9561L40.6127 19.2445L43.9498 9.24375C44.3981 7.88906 43.113 6.6041 41.7682 7.0623L31.767 10.3992L27.0453 0.95625C26.4077 -0.31875 24.5947 -0.31875 23.9572 0.95625L19.2455 10.3893L9.23424 7.05234C7.87948 6.6041 6.59446 7.88906 7.05269 9.23379L10.3898 19.2346L0.956296 23.9561C-0.318765 24.5936 -0.318765 26.4064 0.956296 27.0439L10.3898 31.7555L7.05269 41.7662C6.60442 43.1209 7.88945 44.4059 9.23424 43.9477L19.2355 40.6107L23.9473 50.0438C24.5848 51.3187 26.3978 51.3187 27.0353 50.0438L31.747 40.6107L41.7483 43.9477C43.1031 44.3959 44.3881 43.1109 43.9299 41.7662L40.5928 31.7654L50.0263 27.0539C51.3212 26.4064 51.3212 24.5936 50.0462 23.9561ZM34.5163 34.5146C29.5456 39.4852 21.4569 39.4852 16.4862 34.5146C11.5154 29.5441 11.5154 21.4559 16.4862 16.4854C21.4569 11.5148 29.5456 11.5148 34.5163 16.4854C39.4871 21.4559 39.4871 29.5441 34.5163 34.5146Z" fill="white"/>
</svg>
