<svg xmlns="http://www.w3.org/2000/svg" viewBox="0 0 294.46 130.72"><defs><style>.cls-1{fill:#fff;}</style></defs><g id="Layer_2" data-name="Layer 2"><g id="Layer_1-2" data-name="Layer 1"><path class="cls-1" d="M40.06,130.72q-8,0-12.71-4.83t-4.71-13.34q0-8.43,4.74-13.33t12.68-4.9q12.33,0,15.93,10.2l-9.28,2.79c-1.24-3-3.39-4.49-6.43-4.49a6.88,6.88,0,0,0-5.64,2.66,11,11,0,0,0-2.13,7.07,10.91,10.91,0,0,0,2.09,7,6.66,6.66,0,0,0,5.46,2.62c3.34,0,5.58-1.67,6.73-5l9.27,2.52Q52.55,130.71,40.06,130.72Z"/><path class="cls-1" d="M83.8,129.9v-3.27q-3.58,4.1-10.24,4.09a14.26,14.26,0,0,1-9.5-3.27q-3.89-3.27-3.89-10.41V95.14h9.72v19q0,4.14,1.61,6.08c1.07,1.3,2.76,1.94,5,1.94q7.24,0,7.25-7.89V95.14h9.72V129.9Z"/><path class="cls-1" d="M100.25,129.9V95.14H110V98.2q2-3.89,7.11-3.88A12.58,12.58,0,0,1,124.85,97l-1.34,8.1a12.54,12.54,0,0,0-7-2q-6.58,0-6.58,7.48V129.9Z"/><path class="cls-1" d="M148,129.9v-2.52q-3.66,3.35-9.87,3.34a16.22,16.22,0,0,1-10.13-3,10,10,0,0,1-3.92-8.5,9.62,9.62,0,0,1,4.44-8.57,19.12,19.12,0,0,1,10.73-2.93,21.86,21.86,0,0,1,8.75,1.63v-1.76q0-5.52-6.88-5.51a21.78,21.78,0,0,0-11.81,3.47l-3-7.15A29.27,29.27,0,0,1,142,94.32a27.36,27.36,0,0,1,5.42.48,18.93,18.93,0,0,1,4.89,1.76,8.8,8.8,0,0,1,3.93,4.12,16,16,0,0,1,1.38,7V129.9ZM140,123a12.12,12.12,0,0,0,8-2.86v-3.74a20.45,20.45,0,0,0-7.1-1.15,12.25,12.25,0,0,0-5.31,1,3.21,3.21,0,0,0-2,3,3.08,3.08,0,0,0,1.68,2.72A9.21,9.21,0,0,0,140,123Z"/><path class="cls-1" d="M175,130.72q-9.27,0-9.27-9.19V102.89h-5.46V95.14h5.46V88.9l9.72-4.82V95.14h8.52v7.75H175.4v17.35a2.39,2.39,0,0,0,2.69,2.72,14.79,14.79,0,0,0,6.28-1.5l-1.12,7.69A20.65,20.65,0,0,1,175,130.72Z"/><path class="cls-1" d="M188.56,129.9V95.14h9.72V129.9Z"/><path class="cls-1" d="M215.33,129.9l-14-34.76h10l8,20.61c.45,1.22.8,2.29,1,3.2.25-.91.6-2,1.05-3.2l7.92-20.61h10l-14,34.76Z"/><path class="cls-1" d="M257.65,130.72q-8.31,0-13.09-4.83t-4.78-13.41q0-8.36,4.82-13.26t13-4.9q7.47,0,12.19,4.18t4.71,12.22a35.41,35.41,0,0,1-.3,5.23h-24.9a7.09,7.09,0,0,0,2.65,5.14,8.78,8.78,0,0,0,5.65,1.87,10.38,10.38,0,0,0,8.22-3.6l6,5.51Q266.54,130.72,257.65,130.72Zm-8.23-22.25h15.63a7.07,7.07,0,0,0-7.4-6.39Q250.32,102.08,249.42,108.47Z"/><polygon class="cls-1" points="200.94 86.47 169.83 30.64 164.49 38 143.91 0 103.53 65.34 117.79 65.34 144.1 23.88 163.1 57.54 167.79 51.43 187.15 86.47 200.94 86.47"/><path class="cls-1" d="M76.74,87.46q-11.42,0-18-7.37T52.28,59.8q0-12.64,6.72-20t18-7.33q10.29,0,16.74,6.39t6.4,18.49a60.41,60.41,0,0,1-.44,8H65.42A10.5,10.5,0,0,0,69,72.88a11.35,11.35,0,0,0,7.75,2.86,13.76,13.76,0,0,0,11.34-5.4l8.19,8.36Q89,87.52,76.74,87.46ZM65.57,53.79l21.5.09a11.54,11.54,0,0,0-3.32-7.11,9.58,9.58,0,0,0-6.83-2.6Q66.84,44.13,65.57,53.79Z"/><path class="cls-1" d="M251.77,86.47h-14.6L222.78,58.69l-5,4.71-.09,23.07H204.36l.28-68.07L218,12.18l-.14,36L232,33.94l16.05.07L232.59,49.16Z"/><path class="cls-1" d="M273.82,87.92A29.61,29.61,0,0,1,261.7,85.3a21.12,21.12,0,0,1-8.82-6.93l8.88-7.47q5.63,5.68,12.31,5.71,7.92,0,7.94-4.6a4.13,4.13,0,0,0-2.09-3.56A42.86,42.86,0,0,0,272.48,65q-9.35-3.12-13.65-7a13.15,13.15,0,0,1-4.28-10.35,12.69,12.69,0,0,1,5.5-10.83c3.64-2.62,8.21-3.93,13.69-3.9q11.92,0,19.2,8.51l-9,7.26a14.77,14.77,0,0,0-10.27-4.46c-4.45,0-6.69,1.27-6.7,3.88,0,2.19,3.41,4.33,10.26,6.42q8.22,2.7,12.73,6.58t4.48,11q0,7.62-5.61,11.75T273.82,87.92Z"/><path class="cls-1" d="M25.89,87.19q-7.58,0-11.81-5.07V106.3L0,111.32V33H14.08v3.83Q18.31,31.78,26,31.77q10.41,0,16.63,7.31t6.23,20.46q0,12.74-6.39,20.19A20.79,20.79,0,0,1,25.89,87.19Zm-2.16-13a9.6,9.6,0,0,0,8.18-3.83q2.86-3.82,2.87-10.87,0-6.84-2.87-10.83a9.48,9.48,0,0,0-8.18-4q-6.28,0-9.65,4.25V69.89Q16.9,74.24,23.73,74.24Z"/></g></g></svg>